M48
; DRILL file {KiCad (7.0.0-0)} date Wednesday, January 31, 2024 at 16:00:15
; FORMAT={-:-/ absolute / inch / decimal}
; #@! TF.CreationDate,2024-01-31T16:00:15-05:00
; #@! TF.GenerationSoftware,Kicad,Pcbnew,(7.0.0-0)
; #@! TF.FileFunction,NonPlated,1,2,NPTH
FMAT,2
INCH
; #@! TA.AperFunction,NonPlated,NPTH,ComponentDrill
T1C0.0256
; #@! TA.AperFunction,NonPlated,NPTH,ComponentDrill
T2C0.0689
; #@! TA.AperFunction,NonPlated,NPTH,ComponentDrill
T3C0.1570
; #@! TA.AperFunction,NonPlated,NPTH,ComponentDrill
T4C0.2362
%
G90
G05
T1
X16.6924Y-9.002
X16.6924Y-9.2296
T2
X7.2062Y-8.1544
X7.2062Y-10.4044
X7.3Y-11.9044
X7.3Y-12.6544
X7.3937Y-11.1544
X7.3937Y-13.4044
X7.4875Y-11.9044
X7.6063Y-8.1544
X7.6063Y-10.4044
X7.675Y-12.6544
X7.7Y-11.9044
X7.7Y-12.6544
X7.7938Y-11.1544
X7.7938Y-13.4044
X7.8875Y-11.9044
X7.9562Y-10.4044
X8.075Y-12.6544
X8.1437Y-12.6544
X8.3312Y-11.1544
X8.3562Y-10.4044
X8.5187Y-11.9044
X8.5187Y-13.4062
X8.5437Y-12.6544
X8.7062Y-8.1544
X8.7062Y-8.9044
X8.7062Y-10.4044
X8.7312Y-11.1544
X8.8937Y-12.6544
X8.9187Y-11.9044
X8.9187Y-13.4062
X9.0812Y-11.1544
X9.1062Y-8.1544
X9.1062Y-8.9044
X9.1062Y-10.4044
X9.2687Y-11.9044
X9.2937Y-12.6544
X9.4562Y-8.1544
X9.4562Y-8.9044
X9.4562Y-10.4044
X9.4812Y-11.1544
X9.6437Y-12.6544
X9.6687Y-11.9044
X9.8312Y-11.1544
X9.8562Y-8.1544
X9.8562Y-8.9044
X9.8562Y-10.4044
X10.0187Y-11.9044
X10.0437Y-12.6544
X10.2062Y-8.1544
X10.2062Y-8.9044
X10.2062Y-10.4044
X10.2312Y-11.1544
X10.3937Y-12.6544
X10.4187Y-11.9044
X10.5812Y-11.1544
X10.6062Y-8.1544
X10.6062Y-8.9044
X10.6062Y-10.4044
X10.7687Y-11.9044
X10.7937Y-12.6544
X10.9562Y-8.1544
X10.9562Y-8.9044
X10.9562Y-10.4044
X10.9812Y-11.1544
X11.1437Y-12.6544
X11.1687Y-11.9044
X11.3312Y-11.1544
X11.3562Y-8.1544
X11.3562Y-8.9044
X11.3562Y-10.4044
X11.5187Y-11.9044
X11.5437Y-12.6544
X11.7062Y-8.1544
X11.7062Y-8.9044
X11.7062Y-10.4044
X11.7062Y-13.4062
X11.7312Y-11.1544
X11.8937Y-12.6544
X11.9187Y-11.9044
X12.0812Y-11.1544
X12.1062Y-8.1544
X12.1062Y-8.9044
X12.1062Y-10.4044
X12.1062Y-13.4062
X12.2687Y-11.9044
X12.2937Y-12.6544
X12.4562Y-8.1544
X12.4562Y-8.9044
X12.4562Y-10.4044
X12.4812Y-11.1544
X12.6437Y-12.6544
X12.6687Y-11.9044
X12.8312Y-11.1544
X12.8562Y-8.1544
X12.8562Y-8.9044
X12.8562Y-10.4044
X13.0187Y-11.9044
X13.0437Y-12.6544
X13.2062Y-10.4044
X13.2312Y-11.1544
X13.3937Y-12.6544
X13.4187Y-11.9044
X13.5812Y-8.1544
X13.5812Y-8.9044
X13.5812Y-11.1544
X13.6062Y-10.4044
X13.7687Y-11.9044
X13.7937Y-12.6544
X13.9562Y-10.4044
X13.9812Y-8.1544
X13.9812Y-8.9044
X13.9812Y-11.1544
X14.1437Y-12.6544
X14.1687Y-11.9044
X14.3312Y-8.1544
X14.3312Y-8.9044
X14.3312Y-11.1544
X14.3562Y-10.4044
X14.5187Y-11.9044
X14.5437Y-12.6544
X14.7062Y-10.4044
X14.7312Y-8.1544
X14.7312Y-8.9044
X14.7312Y-11.1544
X14.8937Y-12.6544
X14.8937Y-13.4062
X14.9187Y-11.9044
X15.0812Y-8.1544
X15.0812Y-8.9044
X15.0812Y-11.1544
X15.1062Y-10.4044
X15.2687Y-11.9044
X15.2937Y-12.6544
X15.2937Y-13.4062
X15.4562Y-10.4044
X15.4812Y-8.1544
X15.4812Y-8.9044
X15.4812Y-11.1544
X15.6437Y-12.6544
X15.6687Y-11.9044
X15.8312Y-8.1544
X15.8312Y-8.9044
X15.8312Y-11.1544
X15.8312Y-13.4062
X15.8562Y-10.4044
X16.0188Y-11.9044
X16.0437Y-12.6544
X16.2063Y-10.4044
X16.2312Y-8.1544
X16.2312Y-8.9044
X16.2312Y-11.1544
X16.2312Y-13.4062
X16.4187Y-11.9044
X16.5813Y-11.1544
X16.6062Y-10.4044
X16.7688Y-12.6544
X16.9563Y-8.1544
X16.9812Y-11.1544
X17.1687Y-12.6544
X17.2375Y-11.9044
X17.3313Y-10.4044
X17.3313Y-13.5919
X17.3562Y-8.1544
X17.5188Y-11.1544
X17.6375Y-11.9044
X17.7312Y-10.4044
X17.7312Y-13.5919
X17.9187Y-11.1544
X18.0813Y-12.8419
X18.0813Y-13.5919
X18.4812Y-12.8419
X18.4812Y-13.5919
X18.8313Y-13.5919
X19.2063Y-8.1544
X19.2063Y-8.9044
X19.2063Y-9.6544
X19.2063Y-10.4044
X19.2312Y-13.5919
X19.5813Y-11.1544
X19.6062Y-8.1544
X19.6062Y-8.9044
X19.6062Y-9.6544
X19.6062Y-10.4044
X19.9563Y-8.1544
X19.9563Y-8.9044
X19.9563Y-9.6544
X19.9563Y-10.4044
X19.9812Y-11.1544
X20.3562Y-8.1544
X20.3562Y-8.9044
X20.3562Y-9.6544
X20.3562Y-10.4044
X20.7063Y-8.1544
X20.7063Y-8.9044
X20.7063Y-9.6544
X20.7063Y-10.4044
X20.7063Y-11.1544
X21.1062Y-8.1544
X21.1062Y-8.9044
X21.1062Y-9.6544
X21.1062Y-10.4044
X21.1062Y-11.1544
X21.4563Y-8.1544
X21.4563Y-9.2794
X21.4563Y-10.7794
X21.8562Y-8.1544
X21.8562Y-9.2794
X21.8562Y-10.7794
T3
X7.4062Y-8.1544
X7.4062Y-10.4044
X7.4062Y-12.9794
X7.5Y-11.9044
X7.5Y-12.6544
X7.5938Y-11.1544
X7.5938Y-13.4044
X7.6875Y-11.9044
X7.875Y-12.6544
X8.1562Y-10.4044
X8.3438Y-12.6544
X8.3438Y-12.9794
X8.5312Y-11.1544
X8.7188Y-11.9044
X8.7188Y-13.4062
X8.9062Y-8.1544
X8.9062Y-8.9044
X8.9062Y-10.4044
X9.0938Y-12.6544
X9.2812Y-11.1544
X9.4688Y-11.9044
X9.6562Y-8.1544
X9.6562Y-8.9044
X9.6562Y-10.4044
X9.6562Y-13.0812
X9.8438Y-12.6544
X10.0312Y-11.1544
X10.2188Y-11.9044
X10.4062Y-8.1544
X10.4062Y-8.9044
X10.4062Y-10.4044
X10.5938Y-12.6544
X10.7812Y-11.1544
X10.9688Y-11.9044
X11.1562Y-8.1544
X11.1562Y-8.9044
X11.1562Y-10.4044
X11.3438Y-12.6544
X11.5312Y-11.1544
X11.7188Y-11.9044
X11.9062Y-8.1544
X11.9062Y-8.9044
X11.9062Y-10.4044
X11.9062Y-13.4062
X12.0938Y-12.6544
X12.2812Y-11.1544
X12.4688Y-11.9044
X12.6562Y-8.1544
X12.6562Y-8.9044
X12.6562Y-10.4044
X12.8438Y-12.6544
X13.0312Y-11.1544
X13.2188Y-11.9044
X13.4062Y-10.4044
X13.5938Y-12.6544
X13.7812Y-8.1544
X13.7812Y-8.9044
X13.7812Y-11.1544
X13.9688Y-11.9044
X14.1562Y-10.4044
X14.1562Y-13.0812
X14.3438Y-12.6544
X14.5312Y-8.1544
X14.5312Y-8.9044
X14.5312Y-11.1544
X14.7188Y-11.9044
X14.9062Y-10.4044
X15.0938Y-12.6544
X15.0938Y-13.4062
X15.2812Y-8.1544
X15.2812Y-8.9044
X15.2812Y-11.1544
X15.4688Y-11.9044
X15.6562Y-10.4044
X15.8438Y-12.6544
X16.0312Y-8.1544
X16.0312Y-8.9044
X16.0312Y-11.1544
X16.0312Y-13.4062
X16.2188Y-11.9044
X16.4062Y-10.4044
X16.5Y-12.9794
X16.7812Y-11.1544
X16.9688Y-11.5794
X16.9688Y-12.6544
X17.0625Y-10.7294
X17.1562Y-8.1544
X17.4375Y-11.9044
X17.4375Y-12.9794
X17.5312Y-10.4044
X17.5312Y-13.5919
X17.7188Y-11.1544
X17.9062Y-11.5794
X18.0Y-10.7294
X18.2812Y-12.8419
X18.2812Y-13.5919
X19.0312Y-13.5919
X19.3125Y-10.8294
X19.4062Y-8.1544
X19.4062Y-8.9044
X19.4062Y-9.6544
X19.4062Y-10.4044
X19.7812Y-11.1544
X20.1562Y-8.1544
X20.1562Y-8.9044
X20.1562Y-9.6544
X20.1562Y-10.4044
X20.25Y-10.8294
X20.9062Y-8.1544
X20.9062Y-8.9044
X20.9062Y-9.6544
X20.9062Y-10.4044
X20.9062Y-11.1544
X21.3313Y-8.8107
X21.3313Y-9.7482
X21.3313Y-10.3107
X21.3313Y-11.2482
X21.6562Y-8.1544
X21.6562Y-9.2794
X21.6562Y-10.7794
T4
X7.3438Y-9.5919
X10.9558Y-9.5827
X14.529Y-9.5886
X18.0938Y-9.6232
X18.6875Y-9.6232
T0
M30
