M48
; DRILL file {KiCad (7.0.0-0)} date Wednesday, January 31, 2024 at 16:00:15
; FORMAT={-:-/ absolute / inch / decimal}
; #@! TF.CreationDate,2024-01-31T16:00:15-05:00
; #@! TF.GenerationSoftware,Kicad,Pcbnew,(7.0.0-0)
; #@! TF.FileFunction,Plated,1,2,PTH
FMAT,2
INCH
; #@! TA.AperFunction,Plated,PTH,ViaDrill
T1C0.0118
; #@! TA.AperFunction,Plated,PTH,ComponentDrill
T2C0.0236
; #@! TA.AperFunction,Plated,PTH,ComponentDrill
T3C0.0354
; #@! TA.AperFunction,Plated,PTH,ComponentDrill
T4C0.0394
; #@! TA.AperFunction,Plated,PTH,ComponentDrill
T5C0.0600
; #@! TA.AperFunction,Plated,PTH,ComponentDrill
T6C0.1200
%
G90
G05
T1
X7.525Y-9.3357
X9.5062Y-9.3144
X10.2562Y-9.2944
X12.5062Y-9.2744
X13.6312Y-9.2544
X14.1813Y-9.9144
X14.2163Y-9.9144
X14.5048Y-10.4948
X14.5304Y-10.5262
X14.9912Y-9.9944
X15.0262Y-9.9944
X15.0612Y-9.9944
X15.0968Y-9.995
X15.1312Y-9.2344
X15.5675Y-11.2448
X15.5954Y-11.2762
X15.6463Y-9.1244
X15.6725Y-8.2448
X15.6813Y-9.1244
X15.7012Y-8.2762
X15.7139Y-9.1244
X15.7163Y-9.6244
X15.7168Y-8.9948
X15.7371Y-9.0262
X15.7454Y-9.1244
X15.7512Y-9.5844
X15.7825Y-11.9948
X15.8104Y-12.0262
X15.8613Y-9.4744
X15.8613Y-9.5794
X15.9162Y-10.1494
X15.9262Y-9.6244
X15.9313Y-9.8244
X15.9512Y-10.1494
X15.9712Y-10.0094
X16.0113Y-10.035
X16.0463Y-10.035
X16.0712Y-10.1494
X16.1062Y-10.1494
X16.1163Y-9.6244
X16.1212Y-9.4344
X16.1262Y-9.8294
X16.1456Y-9.5088
X16.1713Y-9.9894
X16.1913Y-9.9144
X16.2198Y-9.4296
X16.2312Y-12.7444
X16.2562Y-12.7762
X16.2662Y-13.5043
X16.2893Y-9.3759
X16.2893Y-9.4509
X16.3012Y-13.5298
X16.3062Y-9.8144
X16.3163Y-9.8694
X16.3163Y-9.9044
X16.406Y-9.0545
X16.4662Y-9.3344
X16.4688Y-9.3732
X16.4688Y-9.7611
X16.4691Y-10.0107
X16.486Y-9.0495
X16.5212Y-9.2094
X16.5663Y-9.2544
X16.5712Y-8.9894
X17.3035Y-9.8244
X17.3463Y-9.7344
X17.8113Y-8.3444
X18.2162Y-8.3444
X18.3533Y-8.6707
X18.3548Y-9.0267
X18.3848Y-8.6707
X18.3863Y-9.0267
X18.4162Y-8.6707
X18.4177Y-9.0267
X18.5663Y-10.268
X18.5663Y-10.2994
X18.5663Y-10.3394
X18.6163Y-8.3444
T3
X17.8811Y-8.4594
X17.9811Y-8.4594
X18.2811Y-8.4594
X18.3811Y-8.4594
X18.6811Y-8.4594
X18.7811Y-8.4594
T4
X18.4662Y-10.7094
X18.5663Y-10.7094
X18.6662Y-10.7094
X18.7662Y-10.7094
T5
X7.2562Y-8.0544
X7.2562Y-10.3044
X7.35Y-11.8044
X7.35Y-12.5544
X7.4437Y-11.0544
X7.4437Y-13.3044
X7.5062Y-7.9544
X7.5062Y-10.2044
X7.5375Y-11.8044
X7.6Y-11.7044
X7.6Y-12.4544
X7.6937Y-10.9544
X7.6937Y-13.2044
X7.725Y-12.5544
X7.7875Y-11.7044
X7.975Y-12.4544
X8.0062Y-10.3044
X8.1937Y-12.5544
X8.2562Y-10.2044
X8.3812Y-11.0544
X8.4437Y-12.4544
X8.5687Y-11.8044
X8.5687Y-13.3063
X8.6312Y-10.9544
X8.7562Y-8.0544
X8.7562Y-8.8044
X8.7562Y-10.3044
X8.8187Y-11.7044
X8.8187Y-13.2062
X8.9437Y-12.5544
X9.0062Y-7.9544
X9.0062Y-8.7044
X9.0062Y-10.2044
X9.1312Y-11.0544
X9.1937Y-12.4544
X9.3187Y-11.8044
X9.3812Y-10.9544
X9.5062Y-8.0544
X9.5062Y-8.8044
X9.5062Y-10.3044
X9.5687Y-11.7044
X9.6937Y-12.5544
X9.7562Y-7.9544
X9.7562Y-8.7044
X9.7562Y-10.2044
X9.8812Y-11.0544
X9.9437Y-12.4544
X10.0687Y-11.8044
X10.1312Y-10.9544
X10.2562Y-8.0544
X10.2562Y-8.8044
X10.2562Y-10.3044
X10.3187Y-11.7044
X10.4437Y-12.5544
X10.5062Y-7.9544
X10.5062Y-8.7044
X10.5062Y-10.2044
X10.6312Y-11.0544
X10.6937Y-12.4544
X10.8187Y-11.8044
X10.8812Y-10.9544
X11.0062Y-8.0544
X11.0062Y-8.8044
X11.0062Y-10.3044
X11.0687Y-11.7044
X11.1937Y-12.5544
X11.2562Y-7.9544
X11.2562Y-8.7044
X11.2562Y-10.2044
X11.3812Y-11.0544
X11.4437Y-12.4544
X11.5687Y-11.8044
X11.6312Y-10.9544
X11.7562Y-8.0544
X11.7562Y-8.8044
X11.7562Y-10.3044
X11.7562Y-13.3063
X11.8187Y-11.7044
X11.9437Y-12.5544
X12.0062Y-7.9544
X12.0062Y-8.7044
X12.0062Y-10.2044
X12.0062Y-13.2062
X12.1312Y-11.0544
X12.1937Y-12.4544
X12.3187Y-11.8044
X12.3812Y-10.9544
X12.5062Y-8.0544
X12.5062Y-8.8044
X12.5062Y-10.3044
X12.5687Y-11.7044
X12.6937Y-12.5544
X12.7562Y-7.9544
X12.7562Y-8.7044
X12.7562Y-10.2044
X12.8812Y-11.0544
X12.9437Y-12.4544
X13.0687Y-11.8044
X13.1312Y-10.9544
X13.2562Y-10.3044
X13.3187Y-11.7044
X13.4437Y-12.5544
X13.5062Y-10.2044
X13.6312Y-8.0544
X13.6312Y-8.8044
X13.6312Y-11.0544
X13.6937Y-12.4544
X13.8187Y-11.8044
X13.8812Y-7.9544
X13.8812Y-8.7044
X13.8812Y-10.9544
X14.0062Y-10.3044
X14.0687Y-11.7044
X14.1937Y-12.5544
X14.2562Y-10.2044
X14.3812Y-8.0544
X14.3812Y-8.8044
X14.3812Y-11.0544
X14.4437Y-12.4544
X14.5687Y-11.8044
X14.6312Y-7.9544
X14.6312Y-8.7044
X14.6312Y-10.9544
X14.7562Y-10.3044
X14.8187Y-11.7044
X14.9437Y-12.5544
X14.9437Y-13.3063
X15.0062Y-10.2044
X15.1312Y-8.0544
X15.1312Y-8.8044
X15.1312Y-11.0544
X15.1937Y-12.4544
X15.1937Y-13.2062
X15.3187Y-11.8044
X15.3812Y-7.9544
X15.3812Y-8.7044
X15.3812Y-10.9544
X15.5062Y-10.3044
X15.5687Y-11.7044
X15.6937Y-12.5544
X15.7562Y-10.2044
X15.8812Y-8.0544
X15.8812Y-8.8044
X15.8812Y-11.0544
X15.8812Y-13.3063
X15.9437Y-12.4544
X16.0687Y-11.8044
X16.1312Y-7.9544
X16.1312Y-8.7044
X16.1312Y-10.9544
X16.1312Y-13.2062
X16.2562Y-10.3044
X16.3187Y-11.7044
X16.5062Y-10.2044
X16.6312Y-11.0544
X16.8187Y-12.5544
X16.8812Y-10.9544
X17.0062Y-8.0544
X17.0687Y-12.4544
X17.2562Y-7.9544
X17.2875Y-11.8044
X17.3812Y-10.3044
X17.3812Y-13.4919
X17.5375Y-11.7044
X17.5687Y-11.0544
X17.6312Y-10.2044
X17.6312Y-13.3919
X17.8187Y-10.9544
X18.1312Y-12.7419
X18.1312Y-13.4919
X18.3812Y-12.6419
X18.3812Y-13.3919
X18.8812Y-13.4919
X19.1312Y-13.3919
X19.2562Y-8.0544
X19.2562Y-8.8044
X19.2562Y-9.5544
X19.2562Y-10.3044
X19.5062Y-7.9544
X19.5062Y-8.7044
X19.5062Y-9.4544
X19.5062Y-10.2044
X19.6312Y-11.0544
X19.8812Y-10.9544
X20.0062Y-8.0544
X20.0062Y-8.8044
X20.0062Y-9.5544
X20.0062Y-10.3044
X20.2562Y-7.9544
X20.2562Y-8.7044
X20.2562Y-9.4544
X20.2562Y-10.2044
X20.7562Y-8.0544
X20.7562Y-8.8044
X20.7562Y-9.5544
X20.7562Y-10.3044
X20.7562Y-11.0544
X21.0062Y-7.9544
X21.0062Y-8.7044
X21.0062Y-9.4544
X21.0062Y-10.2044
X21.0062Y-10.9544
X21.5062Y-8.0544
X21.5062Y-9.1794
X21.5062Y-10.6794
X21.7562Y-7.9544
X21.7562Y-9.0794
X21.7562Y-10.5794
T6
X7.4062Y-12.3794
X8.3438Y-12.3794
X9.6562Y-13.6813
X14.1562Y-13.6813
X16.5Y-12.3794
X16.9688Y-12.1794
X17.0625Y-10.1294
X17.4375Y-12.3794
X17.9062Y-12.1794
X18.0Y-10.1294
X19.3125Y-11.4294
X20.25Y-11.4294
X21.9312Y-8.8107
X21.9312Y-9.7482
X21.9312Y-10.3107
X21.9312Y-11.2482
T2
G00X16.6932Y-8.9457
M15
G01X16.6499Y-8.9457
M16
G05
G00X16.6932Y-9.2858
M15
G01X16.6499Y-9.2858
M16
G05
G00X16.8479Y-8.9457
M15
G01X16.8243Y-8.9457
M16
G05
G00X16.8479Y-9.2858
M15
G01X16.8243Y-9.2858
M16
G05
T0
M30
