%TF.GenerationSoftware,KiCad,Pcbnew,(7.0.0-0)*%
%TF.CreationDate,2024-01-31T16:00:13-05:00*%
%TF.ProjectId,TKL,544b4c2e-6b69-4636-9164-5f7063625858,rev?*%
%TF.SameCoordinates,Original*%
%TF.FileFunction,Profile,NP*%
%FSLAX46Y46*%
G04 Gerber Fmt 4.6, Leading zero omitted, Abs format (unit mm)*
G04 Created by KiCad (PCBNEW (7.0.0-0)) date 2024-01-31 16:00:13*
%MOMM*%
%LPD*%
G01*
G04 APERTURE LIST*
%TA.AperFunction,Profile*%
%ADD10C,1.000000*%
%TD*%
%TA.AperFunction,Profile*%
%ADD11C,0.100000*%
%TD*%
G04 APERTURE END LIST*
D10*
X174336250Y-353281700D02*
X497336250Y-353281700D01*
D11*
X453696213Y-242841713D02*
G75*
G03*
X455283713Y-241254200I-13J1587513D01*
G01*
D10*
X565577500Y-193311700D02*
X565577500Y-293321700D01*
X559557500Y-195811700D02*
X544557500Y-195801700D01*
X544557500Y-193301700D02*
X544557500Y-195801700D01*
X180176250Y-192281700D02*
X180176250Y-195781700D01*
X457176250Y-195811700D02*
X442176250Y-195801700D01*
X478336250Y-332281700D02*
X478336250Y-293281700D01*
X497336250Y-353281700D02*
X497336250Y-332281700D01*
X544557500Y-193301700D02*
X457176250Y-193311700D01*
D11*
X430569000Y-220616700D02*
G75*
G03*
X428981500Y-222204200I0J-1587500D01*
G01*
D10*
X457176250Y-193311700D02*
X457176250Y-195811700D01*
X442176250Y-186801700D02*
X295176250Y-186791700D01*
X442176250Y-186801700D02*
X442176250Y-195801700D01*
X174336250Y-192281700D02*
X174336250Y-353281700D01*
D11*
X455283700Y-222204200D02*
G75*
G03*
X453696213Y-220616700I-1587500J0D01*
G01*
D10*
X280176250Y-193281700D02*
X280176250Y-195781700D01*
X195176250Y-193291700D02*
X195176250Y-195791700D01*
X565577500Y-293321700D02*
X478336250Y-293281700D01*
X295176250Y-186791700D02*
X295176250Y-195791700D01*
D11*
X430569000Y-242841700D02*
X453696213Y-242841700D01*
D10*
X174336250Y-192281700D02*
X180176250Y-192281700D01*
D11*
X428981500Y-241254200D02*
G75*
G03*
X430569000Y-242841700I1587600J100D01*
G01*
D10*
X295176250Y-195791700D02*
X280176250Y-195781700D01*
X280176250Y-193281700D02*
X195176250Y-193291700D01*
X195176250Y-195791700D02*
X180176250Y-195781700D01*
X497336250Y-332281700D02*
X478336250Y-332281700D01*
D11*
X455283713Y-241254200D02*
X455283713Y-222204200D01*
X428981500Y-222204200D02*
X428981500Y-241254200D01*
D10*
X559557500Y-193311700D02*
X559557500Y-195811700D01*
D11*
X453696213Y-220616700D02*
X430569000Y-220616700D01*
D10*
X565577500Y-193311700D02*
X559557500Y-193311700D01*
M02*
