%TF.GenerationSoftware,KiCad,Pcbnew,(7.0.0-0)*%
%TF.CreationDate,2024-01-31T16:00:13-05:00*%
%TF.ProjectId,TKL,544b4c2e-6b69-4636-9164-5f7063625858,rev?*%
%TF.SameCoordinates,Original*%
%TF.FileFunction,Soldermask,Bot*%
%TF.FilePolarity,Negative*%
%FSLAX46Y46*%
G04 Gerber Fmt 4.6, Leading zero omitted, Abs format (unit mm)*
G04 Created by KiCad (PCBNEW (7.0.0-0)) date 2024-01-31 16:00:13*
%MOMM*%
%LPD*%
G01*
G04 APERTURE LIST*
G04 Aperture macros list*
%AMRoundRect*
0 Rectangle with rounded corners*
0 $1 Rounding radius*
0 $2 $3 $4 $5 $6 $7 $8 $9 X,Y pos of 4 corners*
0 Add a 4 corners polygon primitive as box body*
4,1,4,$2,$3,$4,$5,$6,$7,$8,$9,$2,$3,0*
0 Add four circle primitives for the rounded corners*
1,1,$1+$1,$2,$3*
1,1,$1+$1,$4,$5*
1,1,$1+$1,$6,$7*
1,1,$1+$1,$8,$9*
0 Add four rect primitives between the rounded corners*
20,1,$1+$1,$2,$3,$4,$5,0*
20,1,$1+$1,$4,$5,$6,$7,0*
20,1,$1+$1,$6,$7,$8,$9,0*
20,1,$1+$1,$8,$9,$2,$3,0*%
G04 Aperture macros list end*
%ADD10C,1.750000*%
%ADD11C,3.987800*%
%ADD12C,2.300000*%
%ADD13C,4.000000*%
%ADD14C,6.000000*%
%ADD15R,1.700000X1.700000*%
%ADD16O,1.700000X1.700000*%
%ADD17R,1.800000X1.800000*%
%ADD18C,1.800000*%
%ADD19R,1.200000X0.900000*%
%ADD20RoundRect,0.135000X0.135000X0.185000X-0.135000X0.185000X-0.135000X-0.185000X0.135000X-0.185000X0*%
%ADD21C,0.650000*%
%ADD22R,1.450000X0.600000*%
%ADD23R,1.450000X0.300000*%
%ADD24O,1.600000X1.000000*%
%ADD25O,2.100000X1.000000*%
%ADD26R,1.100000X1.800000*%
%ADD27RoundRect,0.150000X-0.587500X-0.150000X0.587500X-0.150000X0.587500X0.150000X-0.587500X0.150000X0*%
%ADD28RoundRect,0.140000X-0.140000X-0.170000X0.140000X-0.170000X0.140000X0.170000X-0.140000X0.170000X0*%
%ADD29RoundRect,0.135000X-0.185000X0.135000X-0.185000X-0.135000X0.185000X-0.135000X0.185000X0.135000X0*%
%ADD30RoundRect,0.250000X0.375000X0.625000X-0.375000X0.625000X-0.375000X-0.625000X0.375000X-0.625000X0*%
%ADD31RoundRect,0.150000X-0.512500X-0.150000X0.512500X-0.150000X0.512500X0.150000X-0.512500X0.150000X0*%
%ADD32RoundRect,0.075000X0.075000X-0.662500X0.075000X0.662500X-0.075000X0.662500X-0.075000X-0.662500X0*%
%ADD33RoundRect,0.075000X0.662500X-0.075000X0.662500X0.075000X-0.662500X0.075000X-0.662500X-0.075000X0*%
%ADD34RoundRect,0.140000X-0.170000X0.140000X-0.170000X-0.140000X0.170000X-0.140000X0.170000X0.140000X0*%
%ADD35RoundRect,0.140000X0.170000X-0.140000X0.170000X0.140000X-0.170000X0.140000X-0.170000X-0.140000X0*%
%ADD36RoundRect,0.135000X0.185000X-0.135000X0.185000X0.135000X-0.185000X0.135000X-0.185000X-0.135000X0*%
%ADD37RoundRect,0.140000X0.140000X0.170000X-0.140000X0.170000X-0.140000X-0.170000X0.140000X-0.170000X0*%
G04 APERTURE END LIST*
D10*
X344963750Y-283322950D03*
D11*
X350043750Y-283322950D03*
D10*
X355123750Y-283322950D03*
D12*
X346233750Y-280782950D03*
X352583750Y-278242950D03*
D10*
X225901250Y-321422950D03*
D11*
X230981250Y-321422950D03*
D10*
X236061250Y-321422950D03*
D12*
X227171250Y-318882950D03*
X233521250Y-316342950D03*
D10*
X364013750Y-226172950D03*
D11*
X369093750Y-226172950D03*
D10*
X374173750Y-226172950D03*
D12*
X365283750Y-223632950D03*
X371633750Y-221092950D03*
D10*
X183038750Y-207122950D03*
D11*
X188118750Y-207122950D03*
D10*
X193198750Y-207122950D03*
D12*
X184308750Y-204582950D03*
X190658750Y-202042950D03*
D10*
X354488750Y-264272950D03*
D11*
X359568750Y-264272950D03*
D10*
X364648750Y-264272950D03*
D12*
X355758750Y-261732950D03*
X362108750Y-259192950D03*
D10*
X383063750Y-283322950D03*
D11*
X388143750Y-283322950D03*
D10*
X393223750Y-283322950D03*
D12*
X384333750Y-280782950D03*
X390683750Y-278242950D03*
D10*
X459263750Y-326185450D03*
D11*
X464343750Y-326185450D03*
D10*
X469423750Y-326185450D03*
D12*
X460533750Y-323645450D03*
X466883750Y-321105450D03*
D10*
X402113750Y-340518750D03*
D11*
X407193750Y-340518750D03*
D10*
X412273750Y-340518750D03*
D12*
X403383750Y-337978750D03*
X409733750Y-335438750D03*
D13*
X419100000Y-314437950D03*
D11*
X419100000Y-329677950D03*
D13*
X442912500Y-314437950D03*
D11*
X442912500Y-329677950D03*
D10*
X278288750Y-226172950D03*
D11*
X283368750Y-226172950D03*
D10*
X288448750Y-226172950D03*
D12*
X279558750Y-223632950D03*
X285908750Y-221092950D03*
D10*
X211613750Y-283322950D03*
D11*
X216693750Y-283322950D03*
D10*
X221773750Y-283322950D03*
D12*
X212883750Y-280782950D03*
X219233750Y-278242950D03*
D14*
X278276250Y-243401700D03*
D10*
X444976250Y-283322950D03*
D11*
X450056250Y-283322950D03*
D10*
X455136250Y-283322950D03*
D12*
X446246250Y-280782950D03*
X452596250Y-278242950D03*
D10*
X402113750Y-226172950D03*
D11*
X407193750Y-226172950D03*
D10*
X412273750Y-226172950D03*
D12*
X403383750Y-223632950D03*
X409733750Y-221092950D03*
D10*
X368776250Y-302372950D03*
D11*
X373856250Y-302372950D03*
D10*
X378936250Y-302372950D03*
D12*
X370046250Y-299832950D03*
X376396250Y-297292950D03*
D13*
X557053750Y-223791700D03*
D11*
X541813750Y-223791700D03*
D13*
X557053750Y-247604200D03*
D11*
X541813750Y-247604200D03*
D10*
X230663750Y-283322950D03*
D11*
X235743750Y-283322950D03*
D10*
X240823750Y-283322950D03*
D12*
X231933750Y-280782950D03*
X238283750Y-278242950D03*
D10*
X240188750Y-207122950D03*
D11*
X245268750Y-207122950D03*
D10*
X250348750Y-207122950D03*
D12*
X241458750Y-204582950D03*
X247808750Y-202042950D03*
D10*
X487838750Y-226172950D03*
D11*
X492918750Y-226172950D03*
D10*
X497998750Y-226172950D03*
D12*
X489108750Y-223632950D03*
X495458750Y-221092950D03*
D10*
X249713750Y-283322950D03*
D11*
X254793750Y-283322950D03*
D10*
X259873750Y-283322950D03*
D12*
X250983750Y-280782950D03*
X257333750Y-278242950D03*
D14*
X474662500Y-244429200D03*
D10*
X544988750Y-273797950D03*
D11*
X550068750Y-273797950D03*
D10*
X555148750Y-273797950D03*
D12*
X546258750Y-271257950D03*
X552608750Y-268717950D03*
D10*
X259238750Y-226172950D03*
D11*
X264318750Y-226172950D03*
D10*
X269398750Y-226172950D03*
D12*
X260508750Y-223632950D03*
X266858750Y-221092950D03*
D10*
X287813750Y-283322950D03*
D11*
X292893750Y-283322950D03*
D10*
X297973750Y-283322950D03*
D12*
X289083750Y-280782950D03*
X295433750Y-278242950D03*
D10*
X421163750Y-283322950D03*
D11*
X426243750Y-283322950D03*
D10*
X431323750Y-283322950D03*
D12*
X422433750Y-280782950D03*
X428783750Y-278242950D03*
D10*
X487838750Y-207122950D03*
D11*
X492918750Y-207122950D03*
D10*
X497998750Y-207122950D03*
D12*
X489108750Y-204582950D03*
X495458750Y-202042950D03*
D10*
X430688750Y-207122950D03*
D11*
X435768750Y-207122950D03*
D10*
X440848750Y-207122950D03*
D12*
X431958750Y-204582950D03*
X438308750Y-202042950D03*
D10*
X459263750Y-345235450D03*
D11*
X464343750Y-345235450D03*
D10*
X469423750Y-345235450D03*
D12*
X460533750Y-342695450D03*
X466883750Y-340155450D03*
D10*
X411638750Y-264272950D03*
D11*
X416718750Y-264272950D03*
D10*
X421798750Y-264272950D03*
D12*
X412908750Y-261732950D03*
X419258750Y-259192950D03*
D10*
X240188750Y-264272950D03*
D11*
X245268750Y-264272950D03*
D10*
X250348750Y-264272950D03*
D12*
X241458750Y-261732950D03*
X247808750Y-259192950D03*
D10*
X440213750Y-345235450D03*
D11*
X445293750Y-345235450D03*
D10*
X450373750Y-345235450D03*
D12*
X441483750Y-342695450D03*
X447833750Y-340155450D03*
D10*
X487838750Y-264272950D03*
D11*
X492918750Y-264272950D03*
D10*
X497998750Y-264272950D03*
D12*
X489108750Y-261732950D03*
X495458750Y-259192950D03*
D10*
X497363750Y-283322950D03*
D11*
X502443750Y-283322950D03*
D10*
X507523750Y-283322950D03*
D12*
X498633750Y-280782950D03*
X504983750Y-278242950D03*
D10*
X392588750Y-264272950D03*
D11*
X397668750Y-264272950D03*
D10*
X402748750Y-264272950D03*
D12*
X393858750Y-261732950D03*
X400208750Y-259192950D03*
D10*
X364013750Y-207122950D03*
D11*
X369093750Y-207122950D03*
D10*
X374173750Y-207122950D03*
D12*
X365283750Y-204582950D03*
X371633750Y-202042950D03*
D10*
X544988750Y-235697950D03*
D11*
X550068750Y-235697950D03*
D10*
X555148750Y-235697950D03*
D12*
X546258750Y-233157950D03*
X552608750Y-230617950D03*
D13*
X433387500Y-257287950D03*
D11*
X433387500Y-272527950D03*
D13*
X457200000Y-257287950D03*
D11*
X457200000Y-272527950D03*
D10*
X330676250Y-302372950D03*
D11*
X335756250Y-302372950D03*
D10*
X340836250Y-302372950D03*
D12*
X331946250Y-299832950D03*
X338296250Y-297292950D03*
D10*
X292576250Y-302372950D03*
D11*
X297656250Y-302372950D03*
D10*
X302736250Y-302372950D03*
D12*
X293846250Y-299832950D03*
X300196250Y-297292950D03*
D10*
X273526250Y-302372950D03*
D11*
X278606250Y-302372950D03*
D10*
X283686250Y-302372950D03*
D12*
X274796250Y-299832950D03*
X281146250Y-297292950D03*
D10*
X506888750Y-264272950D03*
D11*
X511968750Y-264272950D03*
D10*
X517048750Y-264272950D03*
D12*
X508158750Y-261732950D03*
X514508750Y-259192950D03*
D13*
X557053750Y-261891700D03*
D11*
X541813750Y-261891700D03*
D13*
X557053750Y-285704200D03*
D11*
X541813750Y-285704200D03*
D10*
X216376250Y-302372950D03*
D11*
X221456250Y-302372950D03*
D10*
X226536250Y-302372950D03*
D12*
X217646250Y-299832950D03*
X223996250Y-297292950D03*
D10*
X297338750Y-340518750D03*
D11*
X302418750Y-340518750D03*
D10*
X307498750Y-340518750D03*
D12*
X298608750Y-337978750D03*
X304958750Y-335438750D03*
D10*
X278288750Y-264272950D03*
D11*
X283368750Y-264272950D03*
D10*
X288448750Y-264272950D03*
D12*
X279558750Y-261732950D03*
X285908750Y-259192950D03*
D10*
X185420000Y-321422950D03*
D11*
X190500000Y-321422950D03*
D10*
X195580000Y-321422950D03*
D12*
X186690000Y-318882950D03*
X193040000Y-316342950D03*
D10*
X221138750Y-264272950D03*
D11*
X226218750Y-264272950D03*
D10*
X231298750Y-264272950D03*
D12*
X222408750Y-261732950D03*
X228758750Y-259192950D03*
D10*
X202088750Y-264272950D03*
D11*
X207168750Y-264272950D03*
D10*
X212248750Y-264272950D03*
D12*
X203358750Y-261732950D03*
X209708750Y-259192950D03*
D10*
X316388750Y-226172950D03*
D11*
X321468750Y-226172950D03*
D10*
X326548750Y-226172950D03*
D12*
X317658750Y-223632950D03*
X324008750Y-221092950D03*
D10*
X364013750Y-283322950D03*
D11*
X369093750Y-283322950D03*
D10*
X374173750Y-283322950D03*
D12*
X365283750Y-280782950D03*
X371633750Y-278242950D03*
D10*
X383063750Y-226172950D03*
D11*
X388143750Y-226172950D03*
D10*
X393223750Y-226172950D03*
D12*
X384333750Y-223632950D03*
X390683750Y-221092950D03*
D10*
X235426250Y-302372950D03*
D11*
X240506250Y-302372950D03*
D10*
X245586250Y-302372950D03*
D12*
X236696250Y-299832950D03*
X243046250Y-297292950D03*
D10*
X216376250Y-340518750D03*
D11*
X221456250Y-340518750D03*
D10*
X226536250Y-340518750D03*
D12*
X217646250Y-337978750D03*
X223996250Y-335438750D03*
D10*
X187801250Y-340472950D03*
D11*
X192881250Y-340472950D03*
D10*
X197961250Y-340472950D03*
D12*
X189071250Y-337932950D03*
X195421250Y-335392950D03*
D10*
X316388750Y-264272950D03*
D11*
X321468750Y-264272950D03*
D10*
X326548750Y-264272950D03*
D12*
X317658750Y-261732950D03*
X324008750Y-259192950D03*
D14*
X186531250Y-243635450D03*
D10*
X525938750Y-283322950D03*
D11*
X531018750Y-283322950D03*
D10*
X536098750Y-283322950D03*
D12*
X527208750Y-280782950D03*
X533558750Y-278242950D03*
D10*
X259238750Y-207122950D03*
D11*
X264318750Y-207122950D03*
D10*
X269398750Y-207122950D03*
D12*
X260508750Y-204582950D03*
X266858750Y-202042950D03*
D10*
X506888750Y-226172950D03*
D11*
X511968750Y-226172950D03*
D10*
X517048750Y-226172950D03*
D12*
X508158750Y-223632950D03*
X514508750Y-221092950D03*
D10*
X221138750Y-226172950D03*
D11*
X226218750Y-226172950D03*
D10*
X231298750Y-226172950D03*
D12*
X222408750Y-223632950D03*
X228758750Y-221092950D03*
D10*
X268763750Y-283322950D03*
D11*
X273843750Y-283322950D03*
D10*
X278923750Y-283322950D03*
D12*
X270033750Y-280782950D03*
X276383750Y-278242950D03*
D10*
X440213750Y-264272950D03*
D11*
X445293750Y-264272950D03*
D10*
X450373750Y-264272950D03*
D12*
X441483750Y-261732950D03*
X447833750Y-259192950D03*
D10*
X240188750Y-226172950D03*
D11*
X245268750Y-226172950D03*
D10*
X250348750Y-226172950D03*
D12*
X241458750Y-223632950D03*
X247808750Y-221092950D03*
D10*
X221138750Y-207122950D03*
D11*
X226218750Y-207122950D03*
D10*
X231298750Y-207122950D03*
D12*
X222408750Y-204582950D03*
X228758750Y-202042950D03*
D10*
X387826250Y-302372950D03*
D11*
X392906250Y-302372950D03*
D10*
X397986250Y-302372950D03*
D12*
X389096250Y-299832950D03*
X395446250Y-297292950D03*
D10*
X297338750Y-207122950D03*
D11*
X302418750Y-207122950D03*
D10*
X307498750Y-207122950D03*
D12*
X298608750Y-204582950D03*
X304958750Y-202042950D03*
D10*
X183038750Y-264272950D03*
D11*
X188118750Y-264272950D03*
D10*
X193198750Y-264272950D03*
D12*
X184308750Y-261732950D03*
X190658750Y-259192950D03*
D10*
X283051250Y-321422950D03*
D11*
X288131250Y-321422950D03*
D10*
X293211250Y-321422950D03*
D12*
X284321250Y-318882950D03*
X290671250Y-316342950D03*
D10*
X244951250Y-321422950D03*
D11*
X250031250Y-321422950D03*
D10*
X255111250Y-321422950D03*
D12*
X246221250Y-318882950D03*
X252571250Y-316342950D03*
D10*
X359251250Y-321422950D03*
D11*
X364331250Y-321422950D03*
D10*
X369411250Y-321422950D03*
D12*
X360521250Y-318882950D03*
X366871250Y-316342950D03*
D15*
X469042749Y-272019949D03*
D16*
X471582749Y-272019949D03*
X474122749Y-272019949D03*
X476662749Y-272019949D03*
D10*
X506888750Y-207122950D03*
D11*
X511968750Y-207122950D03*
D10*
X517048750Y-207122950D03*
D12*
X508158750Y-204582950D03*
X514508750Y-202042950D03*
D10*
X316388750Y-207122950D03*
D11*
X321468750Y-207122950D03*
D10*
X326548750Y-207122950D03*
D12*
X317658750Y-204582950D03*
X324008750Y-202042950D03*
D10*
X344963750Y-207122950D03*
D11*
X350043750Y-207122950D03*
D10*
X355123750Y-207122950D03*
D12*
X346233750Y-204582950D03*
X352583750Y-202042950D03*
D10*
X349726250Y-302372950D03*
D11*
X354806250Y-302372950D03*
D10*
X359886250Y-302372950D03*
D12*
X350996250Y-299832950D03*
X357346250Y-297292950D03*
D10*
X544988750Y-207122950D03*
D11*
X550068750Y-207122950D03*
D10*
X555148750Y-207122950D03*
D12*
X546258750Y-204582950D03*
X552608750Y-202042950D03*
D10*
X383063750Y-207122950D03*
D11*
X388143750Y-207122950D03*
D10*
X393223750Y-207122950D03*
D12*
X384333750Y-204582950D03*
X390683750Y-202042950D03*
D10*
X437832500Y-302372950D03*
D11*
X442912500Y-302372950D03*
D10*
X447992500Y-302372950D03*
D12*
X439102500Y-299832950D03*
X445452500Y-297292950D03*
D10*
X525938750Y-207122950D03*
D11*
X531018750Y-207122950D03*
D10*
X536098750Y-207122950D03*
D12*
X527208750Y-204582950D03*
X533558750Y-202042950D03*
D10*
X297338750Y-226172950D03*
D11*
X302418750Y-226172950D03*
D10*
X307498750Y-226172950D03*
D12*
X298608750Y-223632950D03*
X304958750Y-221092950D03*
D10*
X506888750Y-245222950D03*
D11*
X511968750Y-245222950D03*
D10*
X517048750Y-245222950D03*
D12*
X508158750Y-242682950D03*
X514508750Y-240142950D03*
D10*
X402113750Y-207122950D03*
D11*
X407193750Y-207122950D03*
D10*
X412273750Y-207122950D03*
D12*
X403383750Y-204582950D03*
X409733750Y-202042950D03*
D13*
X359568750Y-347503750D03*
D11*
X359568750Y-332263750D03*
D13*
X245268750Y-347503750D03*
D11*
X245268750Y-332263750D03*
D17*
X464338749Y-214869949D03*
D18*
X466878750Y-214869950D03*
D17*
X474498749Y-214869949D03*
D18*
X477038750Y-214869950D03*
D10*
X321151250Y-321422950D03*
D11*
X326231250Y-321422950D03*
D10*
X331311250Y-321422950D03*
D12*
X322421250Y-318882950D03*
X328771250Y-316342950D03*
D10*
X297338750Y-264272950D03*
D11*
X302418750Y-264272950D03*
D10*
X307498750Y-264272950D03*
D12*
X298608750Y-261732950D03*
X304958750Y-259192950D03*
D10*
X487838750Y-245222950D03*
D11*
X492918750Y-245222950D03*
D10*
X497998750Y-245222950D03*
D12*
X489108750Y-242682950D03*
X495458750Y-240142950D03*
D10*
X406876250Y-302372950D03*
D11*
X411956250Y-302372950D03*
D10*
X417036250Y-302372950D03*
D12*
X408146250Y-299832950D03*
X414496250Y-297292950D03*
D10*
X478313750Y-345235450D03*
D11*
X483393750Y-345235450D03*
D10*
X488473750Y-345235450D03*
D12*
X479583750Y-342695450D03*
X485933750Y-340155450D03*
D14*
X369036250Y-243551700D03*
D10*
X325913750Y-283322950D03*
D11*
X330993750Y-283322950D03*
D10*
X336073750Y-283322950D03*
D12*
X327183750Y-280782950D03*
X333533750Y-278242950D03*
D10*
X311626250Y-302372950D03*
D11*
X316706250Y-302372950D03*
D10*
X321786250Y-302372950D03*
D12*
X312896250Y-299832950D03*
X319246250Y-297292950D03*
D10*
X344963750Y-226172950D03*
D11*
X350043750Y-226172950D03*
D10*
X355123750Y-226172950D03*
D12*
X346233750Y-223632950D03*
X352583750Y-221092950D03*
D14*
X459581250Y-244429200D03*
D10*
X378301250Y-321422950D03*
D11*
X383381250Y-321422950D03*
D10*
X388461250Y-321422950D03*
D12*
X379571250Y-318882950D03*
X385921250Y-316342950D03*
D10*
X254476250Y-302372950D03*
D11*
X259556250Y-302372950D03*
D10*
X264636250Y-302372950D03*
D12*
X255746250Y-299832950D03*
X262096250Y-297292950D03*
D10*
X373538750Y-264272950D03*
D11*
X378618750Y-264272950D03*
D10*
X383698750Y-264272950D03*
D12*
X374808750Y-261732950D03*
X381158750Y-259192950D03*
D10*
X525938750Y-245222950D03*
D11*
X531018750Y-245222950D03*
D10*
X536098750Y-245222950D03*
D12*
X527208750Y-242682950D03*
X533558750Y-240142950D03*
D10*
X425926250Y-321422950D03*
D11*
X431006250Y-321422950D03*
D10*
X436086250Y-321422950D03*
D12*
X427196250Y-318882950D03*
X433546250Y-316342950D03*
D10*
X206851250Y-321422950D03*
D11*
X211931250Y-321422950D03*
D10*
X217011250Y-321422950D03*
D12*
X208121250Y-318882950D03*
X214471250Y-316342950D03*
D10*
X278288750Y-207122950D03*
D11*
X283368750Y-207122950D03*
D10*
X288448750Y-207122950D03*
D12*
X279558750Y-204582950D03*
X285908750Y-202042950D03*
D10*
X194945000Y-321422950D03*
D11*
X200025000Y-321422950D03*
D10*
X205105000Y-321422950D03*
D12*
X196215000Y-318882950D03*
X202565000Y-316342950D03*
D10*
X378301250Y-340518750D03*
D11*
X383381250Y-340518750D03*
D10*
X388461250Y-340518750D03*
D12*
X379571250Y-337978750D03*
X385921250Y-335438750D03*
D17*
X454178749Y-214869949D03*
D18*
X456718750Y-214869950D03*
D10*
X302101250Y-321422950D03*
D11*
X307181250Y-321422950D03*
D10*
X312261250Y-321422950D03*
D12*
X303371250Y-318882950D03*
X309721250Y-316342950D03*
D10*
X525938750Y-264272950D03*
D11*
X531018750Y-264272950D03*
D10*
X536098750Y-264272950D03*
D12*
X527208750Y-261732950D03*
X533558750Y-259192950D03*
D10*
X402113750Y-283322950D03*
D11*
X407193750Y-283322950D03*
D10*
X412273750Y-283322950D03*
D12*
X403383750Y-280782950D03*
X409733750Y-278242950D03*
D13*
X514350000Y-290307950D03*
D11*
X514350000Y-275067950D03*
D13*
X490537500Y-290307950D03*
D11*
X490537500Y-275067950D03*
D10*
X187801250Y-283322950D03*
D11*
X192881250Y-283322950D03*
D10*
X197961250Y-283322950D03*
D12*
X189071250Y-280782950D03*
X195421250Y-278242950D03*
D10*
X259238750Y-264272950D03*
D11*
X264318750Y-264272950D03*
D10*
X269398750Y-264272950D03*
D12*
X260508750Y-261732950D03*
X266858750Y-259192950D03*
D10*
X190182500Y-302372950D03*
D11*
X195262500Y-302372950D03*
D10*
X200342500Y-302372950D03*
D12*
X191452500Y-299832950D03*
X197802500Y-297292950D03*
D10*
X340201250Y-321422950D03*
D11*
X345281250Y-321422950D03*
D10*
X350361250Y-321422950D03*
D12*
X341471250Y-318882950D03*
X347821250Y-316342950D03*
D13*
X188118750Y-314437950D03*
D11*
X188118750Y-329677950D03*
D13*
X211931250Y-314437950D03*
D11*
X211931250Y-329677950D03*
D10*
X397351250Y-321422950D03*
D11*
X402431250Y-321422950D03*
D10*
X407511250Y-321422950D03*
D12*
X398621250Y-318882950D03*
X404971250Y-316342950D03*
D10*
X306863750Y-283322950D03*
D11*
X311943750Y-283322950D03*
D10*
X317023750Y-283322950D03*
D12*
X308133750Y-280782950D03*
X314483750Y-278242950D03*
D10*
X335438750Y-264272950D03*
D11*
X340518750Y-264272950D03*
D10*
X345598750Y-264272950D03*
D12*
X336708750Y-261732950D03*
X343058750Y-259192950D03*
D13*
X454818750Y-309357950D03*
D11*
X454818750Y-294117950D03*
D13*
X431006250Y-309357950D03*
D11*
X431006250Y-294117950D03*
D10*
X185420000Y-302372950D03*
D11*
X190500000Y-302372950D03*
D10*
X195580000Y-302372950D03*
D12*
X186690000Y-299832950D03*
X193040000Y-297292950D03*
D10*
X525938750Y-226172950D03*
D11*
X531018750Y-226172950D03*
D10*
X536098750Y-226172950D03*
D12*
X527208750Y-223632950D03*
X533558750Y-221092950D03*
D10*
X264001250Y-321422950D03*
D11*
X269081250Y-321422950D03*
D10*
X274161250Y-321422950D03*
D12*
X265271250Y-318882950D03*
X271621250Y-316342950D03*
D19*
X353218749Y-285766699D03*
X353218749Y-282466699D03*
X229393749Y-266716699D03*
X229393749Y-263416699D03*
X505618749Y-285766699D03*
X505618749Y-282466699D03*
X305593749Y-266716699D03*
X305593749Y-263416699D03*
X286543749Y-209566699D03*
X286543749Y-206266699D03*
X248443749Y-266716699D03*
X248443749Y-263416699D03*
D20*
X464599750Y-211948950D03*
X463579750Y-211948950D03*
D21*
X423987500Y-228650574D03*
X423987500Y-234430574D03*
D22*
X422542499Y-228290573D03*
X422542499Y-229090573D03*
D23*
X422542499Y-230290573D03*
X422542499Y-231290573D03*
X422542499Y-231790573D03*
X422542499Y-232790573D03*
D22*
X422542499Y-233990573D03*
X422542499Y-234790573D03*
X422542499Y-234790573D03*
X422542499Y-233990573D03*
D23*
X422542499Y-233290573D03*
X422542499Y-232290573D03*
X422542499Y-230790573D03*
X422542499Y-229790573D03*
D22*
X422542499Y-229090573D03*
X422542499Y-228290573D03*
D24*
X427637499Y-227220573D03*
D25*
X423457499Y-227220573D03*
D24*
X427637499Y-235860573D03*
D25*
X423457499Y-235860573D03*
D26*
X423593749Y-255466699D03*
X423593749Y-249266699D03*
X419893749Y-255466699D03*
X419893749Y-249266699D03*
D27*
X413717248Y-238970697D03*
X413717248Y-237070697D03*
X415592248Y-238020697D03*
D28*
X405697750Y-253350950D03*
X406657750Y-253350950D03*
D19*
X367506249Y-323866699D03*
X367506249Y-320566699D03*
X362743749Y-266716699D03*
X362743749Y-263416699D03*
X391318749Y-209566699D03*
X391318749Y-206266699D03*
D29*
X441668750Y-247252950D03*
X441668750Y-248272950D03*
D19*
X262731249Y-304816699D03*
X262731249Y-301516699D03*
D28*
X410350950Y-252907076D03*
X411310950Y-252907076D03*
D19*
X224631249Y-304816699D03*
X224631249Y-301516699D03*
X248443749Y-209566699D03*
X248443749Y-206266699D03*
X238918749Y-285766699D03*
X238918749Y-282466699D03*
X243681249Y-304816699D03*
X243681249Y-301516699D03*
X291306249Y-323866699D03*
X291306249Y-320566699D03*
X553243749Y-276241699D03*
X553243749Y-272941699D03*
X438943749Y-209566699D03*
X438943749Y-206266699D03*
X198437499Y-304816699D03*
X198437499Y-301516699D03*
X324643749Y-209566699D03*
X324643749Y-206266699D03*
X405606249Y-323866699D03*
X405606249Y-320566699D03*
X210343749Y-266716699D03*
X210343749Y-263416699D03*
X300831249Y-304816699D03*
X300831249Y-301516699D03*
X234156249Y-323866699D03*
X234156249Y-320566699D03*
X319881249Y-304816699D03*
X319881249Y-301516699D03*
D20*
X474759750Y-211948950D03*
X473739750Y-211948950D03*
D19*
X434181249Y-323866699D03*
X434181249Y-320566699D03*
X315118749Y-285766699D03*
X315118749Y-282466699D03*
X400843749Y-266716699D03*
X400843749Y-263416699D03*
X229393749Y-228616699D03*
X229393749Y-225316699D03*
D26*
X429435747Y-255466699D03*
X429435747Y-249266699D03*
X425735747Y-255466699D03*
X425735747Y-249266699D03*
D19*
X534193749Y-247666699D03*
X534193749Y-244366699D03*
X191293749Y-266716699D03*
X191293749Y-263416699D03*
X196056249Y-285766699D03*
X196056249Y-282466699D03*
X305593749Y-209566699D03*
X305593749Y-206266699D03*
X410368749Y-209566699D03*
X410368749Y-206266699D03*
X257968749Y-285766699D03*
X257968749Y-282466699D03*
X338931249Y-304816699D03*
X338931249Y-301516699D03*
X534193749Y-228616699D03*
X534193749Y-225316699D03*
X324643749Y-266716699D03*
X324643749Y-263416699D03*
X267493749Y-266716699D03*
X267493749Y-263416699D03*
X224631249Y-342962499D03*
X224631249Y-339662499D03*
X515143749Y-266716699D03*
X515143749Y-263416699D03*
X203199999Y-323866699D03*
X203199999Y-320566699D03*
X534193749Y-285766699D03*
X534193749Y-282466699D03*
D30*
X417862250Y-234937824D03*
X415062250Y-234937824D03*
D31*
X415575750Y-232903950D03*
X415575750Y-231953950D03*
X415575750Y-231003950D03*
X417850750Y-231003950D03*
X417850750Y-231953950D03*
X417850750Y-232903950D03*
D19*
X410368749Y-343008299D03*
X410368749Y-339708299D03*
X534193749Y-209566699D03*
X534193749Y-206266699D03*
D32*
X409943750Y-251195826D03*
X409443750Y-251195826D03*
X408943750Y-251195826D03*
X408443750Y-251195826D03*
X407943750Y-251195826D03*
X407443750Y-251195826D03*
X406943750Y-251195826D03*
X406443750Y-251195826D03*
X405943750Y-251195826D03*
X405443750Y-251195826D03*
X404943750Y-251195826D03*
X404443750Y-251195826D03*
D33*
X403031250Y-249783326D03*
X403031250Y-249283326D03*
X403031250Y-248783326D03*
X403031250Y-248283326D03*
X403031250Y-247783326D03*
X403031250Y-247283326D03*
X403031250Y-246783326D03*
X403031250Y-246283326D03*
X403031250Y-245783326D03*
X403031250Y-245283326D03*
X403031250Y-244783326D03*
X403031250Y-244283326D03*
D32*
X404443750Y-242870826D03*
X404943750Y-242870826D03*
X405443750Y-242870826D03*
X405943750Y-242870826D03*
X406443750Y-242870826D03*
X406943750Y-242870826D03*
X407443750Y-242870826D03*
X407943750Y-242870826D03*
X408443750Y-242870826D03*
X408943750Y-242870826D03*
X409443750Y-242870826D03*
X409943750Y-242870826D03*
D33*
X411356250Y-244283326D03*
X411356250Y-244783326D03*
X411356250Y-245283326D03*
X411356250Y-245783326D03*
X411356250Y-246283326D03*
X411356250Y-246783326D03*
X411356250Y-247283326D03*
X411356250Y-247783326D03*
X411356250Y-248283326D03*
X411356250Y-248783326D03*
X411356250Y-249283326D03*
X411356250Y-249783326D03*
D19*
X496093749Y-266654199D03*
X496093749Y-263354199D03*
X515143749Y-209566699D03*
X515143749Y-206266699D03*
D20*
X420652250Y-232905824D03*
X419632250Y-232905824D03*
D19*
X381793749Y-266716699D03*
X381793749Y-263416699D03*
X329406249Y-323866699D03*
X329406249Y-320566699D03*
X386556249Y-343008299D03*
X386556249Y-339708299D03*
X219868749Y-285766699D03*
X219868749Y-282466699D03*
D34*
X400970750Y-243537076D03*
X400970750Y-244497076D03*
D19*
X215106249Y-323866699D03*
X215106249Y-320566699D03*
X419893749Y-266716699D03*
X419893749Y-263416699D03*
D20*
X454312750Y-211948950D03*
X453292750Y-211948950D03*
D19*
X453231249Y-285766699D03*
X453231249Y-282466699D03*
X281781249Y-304816699D03*
X281781249Y-301516699D03*
X429418749Y-285766699D03*
X429418749Y-282466699D03*
X296068749Y-285766699D03*
X296068749Y-282466699D03*
X467518749Y-347679199D03*
X467518749Y-344379199D03*
X386556249Y-323866699D03*
X386556249Y-320566699D03*
D20*
X420652250Y-230619824D03*
X419632250Y-230619824D03*
D19*
X396081249Y-304816699D03*
X396081249Y-301516699D03*
X272256249Y-323866699D03*
X272256249Y-320566699D03*
X496093749Y-209566699D03*
X496093749Y-206266699D03*
X353218749Y-228616699D03*
X353218749Y-225316699D03*
X448468749Y-266716699D03*
X448468749Y-263416699D03*
X486568749Y-347679199D03*
X486568749Y-344379199D03*
X515143749Y-247666699D03*
X515143749Y-244366699D03*
X357981249Y-304816699D03*
X357981249Y-301516699D03*
X343693749Y-266716699D03*
X343693749Y-263416699D03*
D35*
X412036251Y-238373696D03*
X412036251Y-237413696D03*
D36*
X440523750Y-249542950D03*
X440523750Y-248522950D03*
D37*
X410421950Y-240650950D03*
X409461950Y-240650950D03*
D19*
X446087499Y-304816699D03*
X446087499Y-301516699D03*
X286543749Y-266716699D03*
X286543749Y-263416699D03*
X534193749Y-266716699D03*
X534193749Y-263416699D03*
X515143749Y-228616699D03*
X515143749Y-225316699D03*
X267493749Y-209566699D03*
X267493749Y-206266699D03*
D35*
X413162750Y-250274950D03*
X413162750Y-249314950D03*
D19*
X310356249Y-323866699D03*
X310356249Y-320566699D03*
X391318749Y-285766699D03*
X391318749Y-282466699D03*
X229393749Y-209612499D03*
X229393749Y-206312499D03*
X372268749Y-209566699D03*
X372268749Y-206266699D03*
X553243749Y-238141699D03*
X553243749Y-234841699D03*
X353218749Y-209612499D03*
X353218749Y-206312499D03*
X410368749Y-285766699D03*
X410368749Y-282466699D03*
D29*
X418314750Y-255158700D03*
X418314750Y-256178700D03*
D19*
X496093749Y-228616699D03*
X496093749Y-225316699D03*
X191293749Y-209566699D03*
X191293749Y-206266699D03*
X553243749Y-209566699D03*
X553243749Y-206266699D03*
X248443749Y-228616699D03*
X248443749Y-225316699D03*
X372268749Y-228616699D03*
X372268749Y-225316699D03*
X410368749Y-228616699D03*
X410368749Y-225316699D03*
X267493749Y-228616699D03*
X267493749Y-225316699D03*
X348456249Y-323866699D03*
X348456249Y-320566699D03*
X334168749Y-285766699D03*
X334168749Y-282466699D03*
X377031249Y-304816699D03*
X377031249Y-301516699D03*
X286543749Y-228616699D03*
X286543749Y-225316699D03*
D37*
X426668749Y-257256200D03*
X425708749Y-257256200D03*
D19*
X391318749Y-228616699D03*
X391318749Y-225316699D03*
X372268749Y-285766699D03*
X372268749Y-282466699D03*
X253206249Y-323866699D03*
X253206249Y-320566699D03*
D34*
X417226750Y-237122950D03*
X417226750Y-238082950D03*
D19*
X448468749Y-347679199D03*
X448468749Y-344379199D03*
X324643749Y-228616699D03*
X324643749Y-225316699D03*
X305593749Y-342962499D03*
X305593749Y-339662499D03*
X277018749Y-285766699D03*
X277018749Y-282466699D03*
X467518749Y-328629199D03*
X467518749Y-325329199D03*
X305593749Y-228616699D03*
X305593749Y-225316699D03*
X415131249Y-304816699D03*
X415131249Y-301516699D03*
X496093749Y-247666699D03*
X496093749Y-244366699D03*
X196056249Y-342916699D03*
X196056249Y-339616699D03*
M02*
