%TF.GenerationSoftware,KiCad,Pcbnew,(7.0.0-0)*%
%TF.CreationDate,2024-01-31T16:00:13-05:00*%
%TF.ProjectId,TKL,544b4c2e-6b69-4636-9164-5f7063625858,rev?*%
%TF.SameCoordinates,Original*%
%TF.FileFunction,Soldermask,Top*%
%TF.FilePolarity,Negative*%
%FSLAX46Y46*%
G04 Gerber Fmt 4.6, Leading zero omitted, Abs format (unit mm)*
G04 Created by KiCad (PCBNEW (7.0.0-0)) date 2024-01-31 16:00:13*
%MOMM*%
%LPD*%
G01*
G04 APERTURE LIST*
%ADD10C,1.750000*%
%ADD11C,3.987800*%
%ADD12C,6.000000*%
%ADD13R,1.700000X1.700000*%
%ADD14O,1.700000X1.700000*%
%ADD15R,1.800000X1.800000*%
%ADD16C,1.800000*%
%ADD17C,0.650000*%
%ADD18O,1.600000X1.000000*%
%ADD19O,2.100000X1.000000*%
G04 APERTURE END LIST*
D10*
X344963750Y-283322950D03*
D11*
X350043750Y-283322950D03*
D10*
X355123750Y-283322950D03*
X225901250Y-321422950D03*
D11*
X230981250Y-321422950D03*
D10*
X236061250Y-321422950D03*
X364013750Y-226172950D03*
D11*
X369093750Y-226172950D03*
D10*
X374173750Y-226172950D03*
X183038750Y-207122950D03*
D11*
X188118750Y-207122950D03*
D10*
X193198750Y-207122950D03*
X354488750Y-264272950D03*
D11*
X359568750Y-264272950D03*
D10*
X364648750Y-264272950D03*
X383063750Y-283322950D03*
D11*
X388143750Y-283322950D03*
D10*
X393223750Y-283322950D03*
X459263750Y-326185450D03*
D11*
X464343750Y-326185450D03*
D10*
X469423750Y-326185450D03*
X402113750Y-340518750D03*
D11*
X407193750Y-340518750D03*
D10*
X412273750Y-340518750D03*
D11*
X419100000Y-329677950D03*
X442912500Y-329677950D03*
D10*
X278288750Y-226172950D03*
D11*
X283368750Y-226172950D03*
D10*
X288448750Y-226172950D03*
X211613750Y-283322950D03*
D11*
X216693750Y-283322950D03*
D10*
X221773750Y-283322950D03*
D12*
X278276250Y-243401700D03*
D10*
X444976250Y-283322950D03*
D11*
X450056250Y-283322950D03*
D10*
X455136250Y-283322950D03*
X402113750Y-226172950D03*
D11*
X407193750Y-226172950D03*
D10*
X412273750Y-226172950D03*
X368776250Y-302372950D03*
D11*
X373856250Y-302372950D03*
D10*
X378936250Y-302372950D03*
D11*
X541813750Y-223791700D03*
X541813750Y-247604200D03*
D10*
X230663750Y-283322950D03*
D11*
X235743750Y-283322950D03*
D10*
X240823750Y-283322950D03*
X240188750Y-207122950D03*
D11*
X245268750Y-207122950D03*
D10*
X250348750Y-207122950D03*
X487838750Y-226172950D03*
D11*
X492918750Y-226172950D03*
D10*
X497998750Y-226172950D03*
X249713750Y-283322950D03*
D11*
X254793750Y-283322950D03*
D10*
X259873750Y-283322950D03*
D12*
X474662500Y-244429200D03*
D10*
X544988750Y-273797950D03*
D11*
X550068750Y-273797950D03*
D10*
X555148750Y-273797950D03*
X259238750Y-226172950D03*
D11*
X264318750Y-226172950D03*
D10*
X269398750Y-226172950D03*
X287813750Y-283322950D03*
D11*
X292893750Y-283322950D03*
D10*
X297973750Y-283322950D03*
X421163750Y-283322950D03*
D11*
X426243750Y-283322950D03*
D10*
X431323750Y-283322950D03*
X487838750Y-207122950D03*
D11*
X492918750Y-207122950D03*
D10*
X497998750Y-207122950D03*
X430688750Y-207122950D03*
D11*
X435768750Y-207122950D03*
D10*
X440848750Y-207122950D03*
X459263750Y-345235450D03*
D11*
X464343750Y-345235450D03*
D10*
X469423750Y-345235450D03*
X411638750Y-264272950D03*
D11*
X416718750Y-264272950D03*
D10*
X421798750Y-264272950D03*
X240188750Y-264272950D03*
D11*
X245268750Y-264272950D03*
D10*
X250348750Y-264272950D03*
X440213750Y-345235450D03*
D11*
X445293750Y-345235450D03*
D10*
X450373750Y-345235450D03*
X487838750Y-264272950D03*
D11*
X492918750Y-264272950D03*
D10*
X497998750Y-264272950D03*
X497363750Y-283322950D03*
D11*
X502443750Y-283322950D03*
D10*
X507523750Y-283322950D03*
X392588750Y-264272950D03*
D11*
X397668750Y-264272950D03*
D10*
X402748750Y-264272950D03*
X364013750Y-207122950D03*
D11*
X369093750Y-207122950D03*
D10*
X374173750Y-207122950D03*
X544988750Y-235697950D03*
D11*
X550068750Y-235697950D03*
D10*
X555148750Y-235697950D03*
D11*
X433387500Y-272527950D03*
X457200000Y-272527950D03*
D10*
X330676250Y-302372950D03*
D11*
X335756250Y-302372950D03*
D10*
X340836250Y-302372950D03*
X292576250Y-302372950D03*
D11*
X297656250Y-302372950D03*
D10*
X302736250Y-302372950D03*
X273526250Y-302372950D03*
D11*
X278606250Y-302372950D03*
D10*
X283686250Y-302372950D03*
X506888750Y-264272950D03*
D11*
X511968750Y-264272950D03*
D10*
X517048750Y-264272950D03*
D11*
X541813750Y-261891700D03*
X541813750Y-285704200D03*
D10*
X216376250Y-302372950D03*
D11*
X221456250Y-302372950D03*
D10*
X226536250Y-302372950D03*
X297338750Y-340518750D03*
D11*
X302418750Y-340518750D03*
D10*
X307498750Y-340518750D03*
X278288750Y-264272950D03*
D11*
X283368750Y-264272950D03*
D10*
X288448750Y-264272950D03*
X185420000Y-321422950D03*
D11*
X190500000Y-321422950D03*
D10*
X195580000Y-321422950D03*
X221138750Y-264272950D03*
D11*
X226218750Y-264272950D03*
D10*
X231298750Y-264272950D03*
X202088750Y-264272950D03*
D11*
X207168750Y-264272950D03*
D10*
X212248750Y-264272950D03*
X316388750Y-226172950D03*
D11*
X321468750Y-226172950D03*
D10*
X326548750Y-226172950D03*
X364013750Y-283322950D03*
D11*
X369093750Y-283322950D03*
D10*
X374173750Y-283322950D03*
X383063750Y-226172950D03*
D11*
X388143750Y-226172950D03*
D10*
X393223750Y-226172950D03*
X235426250Y-302372950D03*
D11*
X240506250Y-302372950D03*
D10*
X245586250Y-302372950D03*
X216376250Y-340518750D03*
D11*
X221456250Y-340518750D03*
D10*
X226536250Y-340518750D03*
X187801250Y-340472950D03*
D11*
X192881250Y-340472950D03*
D10*
X197961250Y-340472950D03*
X316388750Y-264272950D03*
D11*
X321468750Y-264272950D03*
D10*
X326548750Y-264272950D03*
D12*
X186531250Y-243635450D03*
D10*
X525938750Y-283322950D03*
D11*
X531018750Y-283322950D03*
D10*
X536098750Y-283322950D03*
X259238750Y-207122950D03*
D11*
X264318750Y-207122950D03*
D10*
X269398750Y-207122950D03*
X506888750Y-226172950D03*
D11*
X511968750Y-226172950D03*
D10*
X517048750Y-226172950D03*
X221138750Y-226172950D03*
D11*
X226218750Y-226172950D03*
D10*
X231298750Y-226172950D03*
X268763750Y-283322950D03*
D11*
X273843750Y-283322950D03*
D10*
X278923750Y-283322950D03*
X440213750Y-264272950D03*
D11*
X445293750Y-264272950D03*
D10*
X450373750Y-264272950D03*
X240188750Y-226172950D03*
D11*
X245268750Y-226172950D03*
D10*
X250348750Y-226172950D03*
X221138750Y-207122950D03*
D11*
X226218750Y-207122950D03*
D10*
X231298750Y-207122950D03*
X387826250Y-302372950D03*
D11*
X392906250Y-302372950D03*
D10*
X397986250Y-302372950D03*
X297338750Y-207122950D03*
D11*
X302418750Y-207122950D03*
D10*
X307498750Y-207122950D03*
X183038750Y-264272950D03*
D11*
X188118750Y-264272950D03*
D10*
X193198750Y-264272950D03*
X283051250Y-321422950D03*
D11*
X288131250Y-321422950D03*
D10*
X293211250Y-321422950D03*
X244951250Y-321422950D03*
D11*
X250031250Y-321422950D03*
D10*
X255111250Y-321422950D03*
X359251250Y-321422950D03*
D11*
X364331250Y-321422950D03*
D10*
X369411250Y-321422950D03*
D13*
X469042749Y-272019949D03*
D14*
X471582749Y-272019949D03*
X474122749Y-272019949D03*
X476662749Y-272019949D03*
D10*
X506888750Y-207122950D03*
D11*
X511968750Y-207122950D03*
D10*
X517048750Y-207122950D03*
X316388750Y-207122950D03*
D11*
X321468750Y-207122950D03*
D10*
X326548750Y-207122950D03*
X344963750Y-207122950D03*
D11*
X350043750Y-207122950D03*
D10*
X355123750Y-207122950D03*
X349726250Y-302372950D03*
D11*
X354806250Y-302372950D03*
D10*
X359886250Y-302372950D03*
X544988750Y-207122950D03*
D11*
X550068750Y-207122950D03*
D10*
X555148750Y-207122950D03*
X383063750Y-207122950D03*
D11*
X388143750Y-207122950D03*
D10*
X393223750Y-207122950D03*
X437832500Y-302372950D03*
D11*
X442912500Y-302372950D03*
D10*
X447992500Y-302372950D03*
X525938750Y-207122950D03*
D11*
X531018750Y-207122950D03*
D10*
X536098750Y-207122950D03*
X297338750Y-226172950D03*
D11*
X302418750Y-226172950D03*
D10*
X307498750Y-226172950D03*
X506888750Y-245222950D03*
D11*
X511968750Y-245222950D03*
D10*
X517048750Y-245222950D03*
X402113750Y-207122950D03*
D11*
X407193750Y-207122950D03*
D10*
X412273750Y-207122950D03*
D11*
X359568750Y-332263750D03*
X245268750Y-332263750D03*
D15*
X464338749Y-214869949D03*
D16*
X466878750Y-214869950D03*
D15*
X474498749Y-214869949D03*
D16*
X477038750Y-214869950D03*
D10*
X321151250Y-321422950D03*
D11*
X326231250Y-321422950D03*
D10*
X331311250Y-321422950D03*
X297338750Y-264272950D03*
D11*
X302418750Y-264272950D03*
D10*
X307498750Y-264272950D03*
X487838750Y-245222950D03*
D11*
X492918750Y-245222950D03*
D10*
X497998750Y-245222950D03*
X406876250Y-302372950D03*
D11*
X411956250Y-302372950D03*
D10*
X417036250Y-302372950D03*
X478313750Y-345235450D03*
D11*
X483393750Y-345235450D03*
D10*
X488473750Y-345235450D03*
D12*
X369036250Y-243551700D03*
D10*
X325913750Y-283322950D03*
D11*
X330993750Y-283322950D03*
D10*
X336073750Y-283322950D03*
X311626250Y-302372950D03*
D11*
X316706250Y-302372950D03*
D10*
X321786250Y-302372950D03*
X344963750Y-226172950D03*
D11*
X350043750Y-226172950D03*
D10*
X355123750Y-226172950D03*
D12*
X459581250Y-244429200D03*
D10*
X378301250Y-321422950D03*
D11*
X383381250Y-321422950D03*
D10*
X388461250Y-321422950D03*
X254476250Y-302372950D03*
D11*
X259556250Y-302372950D03*
D10*
X264636250Y-302372950D03*
X373538750Y-264272950D03*
D11*
X378618750Y-264272950D03*
D10*
X383698750Y-264272950D03*
X525938750Y-245222950D03*
D11*
X531018750Y-245222950D03*
D10*
X536098750Y-245222950D03*
X425926250Y-321422950D03*
D11*
X431006250Y-321422950D03*
D10*
X436086250Y-321422950D03*
X206851250Y-321422950D03*
D11*
X211931250Y-321422950D03*
D10*
X217011250Y-321422950D03*
X278288750Y-207122950D03*
D11*
X283368750Y-207122950D03*
D10*
X288448750Y-207122950D03*
X194945000Y-321422950D03*
D11*
X200025000Y-321422950D03*
D10*
X205105000Y-321422950D03*
X378301250Y-340518750D03*
D11*
X383381250Y-340518750D03*
D10*
X388461250Y-340518750D03*
D15*
X454178749Y-214869949D03*
D16*
X456718750Y-214869950D03*
D10*
X302101250Y-321422950D03*
D11*
X307181250Y-321422950D03*
D10*
X312261250Y-321422950D03*
X525938750Y-264272950D03*
D11*
X531018750Y-264272950D03*
D10*
X536098750Y-264272950D03*
X402113750Y-283322950D03*
D11*
X407193750Y-283322950D03*
D10*
X412273750Y-283322950D03*
D11*
X514350000Y-275067950D03*
X490537500Y-275067950D03*
D10*
X187801250Y-283322950D03*
D11*
X192881250Y-283322950D03*
D10*
X197961250Y-283322950D03*
X259238750Y-264272950D03*
D11*
X264318750Y-264272950D03*
D10*
X269398750Y-264272950D03*
X190182500Y-302372950D03*
D11*
X195262500Y-302372950D03*
D10*
X200342500Y-302372950D03*
X340201250Y-321422950D03*
D11*
X345281250Y-321422950D03*
D10*
X350361250Y-321422950D03*
D11*
X188118750Y-329677950D03*
X211931250Y-329677950D03*
D10*
X397351250Y-321422950D03*
D11*
X402431250Y-321422950D03*
D10*
X407511250Y-321422950D03*
X306863750Y-283322950D03*
D11*
X311943750Y-283322950D03*
D10*
X317023750Y-283322950D03*
X335438750Y-264272950D03*
D11*
X340518750Y-264272950D03*
D10*
X345598750Y-264272950D03*
D11*
X454818750Y-294117950D03*
X431006250Y-294117950D03*
D10*
X185420000Y-302372950D03*
D11*
X190500000Y-302372950D03*
D10*
X195580000Y-302372950D03*
X525938750Y-226172950D03*
D11*
X531018750Y-226172950D03*
D10*
X536098750Y-226172950D03*
X264001250Y-321422950D03*
D11*
X269081250Y-321422950D03*
D10*
X274161250Y-321422950D03*
D17*
X423987500Y-228650574D03*
X423987500Y-234430574D03*
D18*
X427637499Y-227220573D03*
D19*
X423457499Y-227220573D03*
D18*
X427637499Y-235860573D03*
D19*
X423457499Y-235860573D03*
M02*
