%TF.GenerationSoftware,KiCad,Pcbnew,(7.0.0-0)*%
%TF.CreationDate,2024-01-31T16:00:13-05:00*%
%TF.ProjectId,TKL,544b4c2e-6b69-4636-9164-5f7063625858,rev?*%
%TF.SameCoordinates,Original*%
%TF.FileFunction,Paste,Bot*%
%TF.FilePolarity,Positive*%
%FSLAX46Y46*%
G04 Gerber Fmt 4.6, Leading zero omitted, Abs format (unit mm)*
G04 Created by KiCad (PCBNEW (7.0.0-0)) date 2024-01-31 16:00:13*
%MOMM*%
%LPD*%
G01*
G04 APERTURE LIST*
G04 Aperture macros list*
%AMRoundRect*
0 Rectangle with rounded corners*
0 $1 Rounding radius*
0 $2 $3 $4 $5 $6 $7 $8 $9 X,Y pos of 4 corners*
0 Add a 4 corners polygon primitive as box body*
4,1,4,$2,$3,$4,$5,$6,$7,$8,$9,$2,$3,0*
0 Add four circle primitives for the rounded corners*
1,1,$1+$1,$2,$3*
1,1,$1+$1,$4,$5*
1,1,$1+$1,$6,$7*
1,1,$1+$1,$8,$9*
0 Add four rect primitives between the rounded corners*
20,1,$1+$1,$2,$3,$4,$5,0*
20,1,$1+$1,$4,$5,$6,$7,0*
20,1,$1+$1,$6,$7,$8,$9,0*
20,1,$1+$1,$8,$9,$2,$3,0*%
G04 Aperture macros list end*
%ADD10R,1.200000X0.900000*%
%ADD11RoundRect,0.135000X0.135000X0.185000X-0.135000X0.185000X-0.135000X-0.185000X0.135000X-0.185000X0*%
%ADD12R,1.450000X0.600000*%
%ADD13R,1.450000X0.300000*%
%ADD14R,1.100000X1.800000*%
%ADD15RoundRect,0.150000X-0.587500X-0.150000X0.587500X-0.150000X0.587500X0.150000X-0.587500X0.150000X0*%
%ADD16RoundRect,0.140000X-0.140000X-0.170000X0.140000X-0.170000X0.140000X0.170000X-0.140000X0.170000X0*%
%ADD17RoundRect,0.135000X-0.185000X0.135000X-0.185000X-0.135000X0.185000X-0.135000X0.185000X0.135000X0*%
%ADD18RoundRect,0.250000X0.375000X0.625000X-0.375000X0.625000X-0.375000X-0.625000X0.375000X-0.625000X0*%
%ADD19RoundRect,0.150000X-0.512500X-0.150000X0.512500X-0.150000X0.512500X0.150000X-0.512500X0.150000X0*%
%ADD20RoundRect,0.075000X0.075000X-0.662500X0.075000X0.662500X-0.075000X0.662500X-0.075000X-0.662500X0*%
%ADD21RoundRect,0.075000X0.662500X-0.075000X0.662500X0.075000X-0.662500X0.075000X-0.662500X-0.075000X0*%
%ADD22RoundRect,0.140000X-0.170000X0.140000X-0.170000X-0.140000X0.170000X-0.140000X0.170000X0.140000X0*%
%ADD23RoundRect,0.140000X0.170000X-0.140000X0.170000X0.140000X-0.170000X0.140000X-0.170000X-0.140000X0*%
%ADD24RoundRect,0.135000X0.185000X-0.135000X0.185000X0.135000X-0.185000X0.135000X-0.185000X-0.135000X0*%
%ADD25RoundRect,0.140000X0.140000X0.170000X-0.140000X0.170000X-0.140000X-0.170000X0.140000X-0.170000X0*%
G04 APERTURE END LIST*
D10*
X353218749Y-285766699D03*
X353218749Y-282466699D03*
X229393749Y-266716699D03*
X229393749Y-263416699D03*
X505618749Y-285766699D03*
X505618749Y-282466699D03*
X305593749Y-266716699D03*
X305593749Y-263416699D03*
X286543749Y-209566699D03*
X286543749Y-206266699D03*
X248443749Y-266716699D03*
X248443749Y-263416699D03*
D11*
X464599750Y-211948950D03*
X463579750Y-211948950D03*
D12*
X422542499Y-228290573D03*
X422542499Y-229090573D03*
D13*
X422542499Y-230290573D03*
X422542499Y-231290573D03*
X422542499Y-231790573D03*
X422542499Y-232790573D03*
D12*
X422542499Y-233990573D03*
X422542499Y-234790573D03*
X422542499Y-234790573D03*
X422542499Y-233990573D03*
D13*
X422542499Y-233290573D03*
X422542499Y-232290573D03*
X422542499Y-230790573D03*
X422542499Y-229790573D03*
D12*
X422542499Y-229090573D03*
X422542499Y-228290573D03*
D14*
X423593749Y-255466699D03*
X423593749Y-249266699D03*
X419893749Y-255466699D03*
X419893749Y-249266699D03*
D15*
X413717248Y-238970697D03*
X413717248Y-237070697D03*
X415592248Y-238020697D03*
D16*
X405697750Y-253350950D03*
X406657750Y-253350950D03*
D10*
X367506249Y-323866699D03*
X367506249Y-320566699D03*
X362743749Y-266716699D03*
X362743749Y-263416699D03*
X391318749Y-209566699D03*
X391318749Y-206266699D03*
D17*
X441668750Y-247252950D03*
X441668750Y-248272950D03*
D10*
X262731249Y-304816699D03*
X262731249Y-301516699D03*
D16*
X410350950Y-252907076D03*
X411310950Y-252907076D03*
D10*
X224631249Y-304816699D03*
X224631249Y-301516699D03*
X248443749Y-209566699D03*
X248443749Y-206266699D03*
X238918749Y-285766699D03*
X238918749Y-282466699D03*
X243681249Y-304816699D03*
X243681249Y-301516699D03*
X291306249Y-323866699D03*
X291306249Y-320566699D03*
X553243749Y-276241699D03*
X553243749Y-272941699D03*
X438943749Y-209566699D03*
X438943749Y-206266699D03*
X198437499Y-304816699D03*
X198437499Y-301516699D03*
X324643749Y-209566699D03*
X324643749Y-206266699D03*
X405606249Y-323866699D03*
X405606249Y-320566699D03*
X210343749Y-266716699D03*
X210343749Y-263416699D03*
X300831249Y-304816699D03*
X300831249Y-301516699D03*
X234156249Y-323866699D03*
X234156249Y-320566699D03*
X319881249Y-304816699D03*
X319881249Y-301516699D03*
D11*
X474759750Y-211948950D03*
X473739750Y-211948950D03*
D10*
X434181249Y-323866699D03*
X434181249Y-320566699D03*
X315118749Y-285766699D03*
X315118749Y-282466699D03*
X400843749Y-266716699D03*
X400843749Y-263416699D03*
X229393749Y-228616699D03*
X229393749Y-225316699D03*
D14*
X429435747Y-255466699D03*
X429435747Y-249266699D03*
X425735747Y-255466699D03*
X425735747Y-249266699D03*
D10*
X534193749Y-247666699D03*
X534193749Y-244366699D03*
X191293749Y-266716699D03*
X191293749Y-263416699D03*
X196056249Y-285766699D03*
X196056249Y-282466699D03*
X305593749Y-209566699D03*
X305593749Y-206266699D03*
X410368749Y-209566699D03*
X410368749Y-206266699D03*
X257968749Y-285766699D03*
X257968749Y-282466699D03*
X338931249Y-304816699D03*
X338931249Y-301516699D03*
X534193749Y-228616699D03*
X534193749Y-225316699D03*
X324643749Y-266716699D03*
X324643749Y-263416699D03*
X267493749Y-266716699D03*
X267493749Y-263416699D03*
X224631249Y-342962499D03*
X224631249Y-339662499D03*
X515143749Y-266716699D03*
X515143749Y-263416699D03*
X203199999Y-323866699D03*
X203199999Y-320566699D03*
X534193749Y-285766699D03*
X534193749Y-282466699D03*
D18*
X417862250Y-234937824D03*
X415062250Y-234937824D03*
D19*
X415575750Y-232903950D03*
X415575750Y-231953950D03*
X415575750Y-231003950D03*
X417850750Y-231003950D03*
X417850750Y-231953950D03*
X417850750Y-232903950D03*
D10*
X410368749Y-343008299D03*
X410368749Y-339708299D03*
X534193749Y-209566699D03*
X534193749Y-206266699D03*
D20*
X409943750Y-251195826D03*
X409443750Y-251195826D03*
X408943750Y-251195826D03*
X408443750Y-251195826D03*
X407943750Y-251195826D03*
X407443750Y-251195826D03*
X406943750Y-251195826D03*
X406443750Y-251195826D03*
X405943750Y-251195826D03*
X405443750Y-251195826D03*
X404943750Y-251195826D03*
X404443750Y-251195826D03*
D21*
X403031250Y-249783326D03*
X403031250Y-249283326D03*
X403031250Y-248783326D03*
X403031250Y-248283326D03*
X403031250Y-247783326D03*
X403031250Y-247283326D03*
X403031250Y-246783326D03*
X403031250Y-246283326D03*
X403031250Y-245783326D03*
X403031250Y-245283326D03*
X403031250Y-244783326D03*
X403031250Y-244283326D03*
D20*
X404443750Y-242870826D03*
X404943750Y-242870826D03*
X405443750Y-242870826D03*
X405943750Y-242870826D03*
X406443750Y-242870826D03*
X406943750Y-242870826D03*
X407443750Y-242870826D03*
X407943750Y-242870826D03*
X408443750Y-242870826D03*
X408943750Y-242870826D03*
X409443750Y-242870826D03*
X409943750Y-242870826D03*
D21*
X411356250Y-244283326D03*
X411356250Y-244783326D03*
X411356250Y-245283326D03*
X411356250Y-245783326D03*
X411356250Y-246283326D03*
X411356250Y-246783326D03*
X411356250Y-247283326D03*
X411356250Y-247783326D03*
X411356250Y-248283326D03*
X411356250Y-248783326D03*
X411356250Y-249283326D03*
X411356250Y-249783326D03*
D10*
X496093749Y-266654199D03*
X496093749Y-263354199D03*
X515143749Y-209566699D03*
X515143749Y-206266699D03*
D11*
X420652250Y-232905824D03*
X419632250Y-232905824D03*
D10*
X381793749Y-266716699D03*
X381793749Y-263416699D03*
X329406249Y-323866699D03*
X329406249Y-320566699D03*
X386556249Y-343008299D03*
X386556249Y-339708299D03*
X219868749Y-285766699D03*
X219868749Y-282466699D03*
D22*
X400970750Y-243537076D03*
X400970750Y-244497076D03*
D10*
X215106249Y-323866699D03*
X215106249Y-320566699D03*
X419893749Y-266716699D03*
X419893749Y-263416699D03*
D11*
X454312750Y-211948950D03*
X453292750Y-211948950D03*
D10*
X453231249Y-285766699D03*
X453231249Y-282466699D03*
X281781249Y-304816699D03*
X281781249Y-301516699D03*
X429418749Y-285766699D03*
X429418749Y-282466699D03*
X296068749Y-285766699D03*
X296068749Y-282466699D03*
X467518749Y-347679199D03*
X467518749Y-344379199D03*
X386556249Y-323866699D03*
X386556249Y-320566699D03*
D11*
X420652250Y-230619824D03*
X419632250Y-230619824D03*
D10*
X396081249Y-304816699D03*
X396081249Y-301516699D03*
X272256249Y-323866699D03*
X272256249Y-320566699D03*
X496093749Y-209566699D03*
X496093749Y-206266699D03*
X353218749Y-228616699D03*
X353218749Y-225316699D03*
X448468749Y-266716699D03*
X448468749Y-263416699D03*
X486568749Y-347679199D03*
X486568749Y-344379199D03*
X515143749Y-247666699D03*
X515143749Y-244366699D03*
X357981249Y-304816699D03*
X357981249Y-301516699D03*
X343693749Y-266716699D03*
X343693749Y-263416699D03*
D23*
X412036251Y-238373696D03*
X412036251Y-237413696D03*
D24*
X440523750Y-249542950D03*
X440523750Y-248522950D03*
D25*
X410421950Y-240650950D03*
X409461950Y-240650950D03*
D10*
X446087499Y-304816699D03*
X446087499Y-301516699D03*
X286543749Y-266716699D03*
X286543749Y-263416699D03*
X534193749Y-266716699D03*
X534193749Y-263416699D03*
X515143749Y-228616699D03*
X515143749Y-225316699D03*
X267493749Y-209566699D03*
X267493749Y-206266699D03*
D23*
X413162750Y-250274950D03*
X413162750Y-249314950D03*
D10*
X310356249Y-323866699D03*
X310356249Y-320566699D03*
X391318749Y-285766699D03*
X391318749Y-282466699D03*
X229393749Y-209612499D03*
X229393749Y-206312499D03*
X372268749Y-209566699D03*
X372268749Y-206266699D03*
X553243749Y-238141699D03*
X553243749Y-234841699D03*
X353218749Y-209612499D03*
X353218749Y-206312499D03*
X410368749Y-285766699D03*
X410368749Y-282466699D03*
D17*
X418314750Y-255158700D03*
X418314750Y-256178700D03*
D10*
X496093749Y-228616699D03*
X496093749Y-225316699D03*
X191293749Y-209566699D03*
X191293749Y-206266699D03*
X553243749Y-209566699D03*
X553243749Y-206266699D03*
X248443749Y-228616699D03*
X248443749Y-225316699D03*
X372268749Y-228616699D03*
X372268749Y-225316699D03*
X410368749Y-228616699D03*
X410368749Y-225316699D03*
X267493749Y-228616699D03*
X267493749Y-225316699D03*
X348456249Y-323866699D03*
X348456249Y-320566699D03*
X334168749Y-285766699D03*
X334168749Y-282466699D03*
X377031249Y-304816699D03*
X377031249Y-301516699D03*
X286543749Y-228616699D03*
X286543749Y-225316699D03*
D25*
X426668749Y-257256200D03*
X425708749Y-257256200D03*
D10*
X391318749Y-228616699D03*
X391318749Y-225316699D03*
X372268749Y-285766699D03*
X372268749Y-282466699D03*
X253206249Y-323866699D03*
X253206249Y-320566699D03*
D22*
X417226750Y-237122950D03*
X417226750Y-238082950D03*
D10*
X448468749Y-347679199D03*
X448468749Y-344379199D03*
X324643749Y-228616699D03*
X324643749Y-225316699D03*
X305593749Y-342962499D03*
X305593749Y-339662499D03*
X277018749Y-285766699D03*
X277018749Y-282466699D03*
X467518749Y-328629199D03*
X467518749Y-325329199D03*
X305593749Y-228616699D03*
X305593749Y-225316699D03*
X415131249Y-304816699D03*
X415131249Y-301516699D03*
X496093749Y-247666699D03*
X496093749Y-244366699D03*
X196056249Y-342916699D03*
X196056249Y-339616699D03*
M02*
